#!OML:ASF E:\Style6\Style6.ASF
:FULLY-SPECIFIED
:DEGREES
2444
root 0.305891 17.5412 -1.02981 18.0817 3.32557 4.29481
lowerback 10.1327 -0.680964 2.70326
upperback 5.35393 -0.636574 1.62948
thorax -0.12501 -0.282353 0.228811
lowerneck 11.2821 11.6065 -4.38036
upperneck -4.0232 13.9666 -15.0765
head -2.24704 7.68621 -4.55102
rclavicle 1.27222e-014 -1.27222e-014
rhumerus -7.12086 -19.3258 -80.5856
rradius 31.3263
rwrist 32.0292
rhand -3.81829 9.24109
rfingers 7.12502
rthumb 21.9284 -19.5361
lclavicle 1.27222e-014 -1.27222e-014
lhumerus 76.2217 -6.64503 69.5622
lradius 66.1195
lwrist -29.5124
lhand -43.4858 13.7785
lfingers 7.12502
lthumb -16.3261 43.1113
rfemur -43.4733 -7.84843 16.305
rtibia 40.5188
rfoot -8.83239 -8.6895
rtoes -12.2798
lfemur -40.1926 5.48036 -24.7875
ltibia 35.1998
lfoot -8.05846 -4.07063
ltoes -18.4002
2445
root 0.306653 17.5422 -1.02805 18.1143 3.3822 4.2801
lowerback 10.1155 -0.665458 2.70045
upperback 5.37098 -0.617724 1.60831
thorax -0.0978392 -0.272348 0.206337
lowerneck 11.3183 11.6376 -4.36973
upperneck -4.01201 14.01 -15.0077
head -2.25036 7.70492 -4.53576
rclavicle -5.56597e-015 5.56597e-015
rhumerus -6.99775 -19.3745 -80.6768
rradius 31.294
rwrist 32.0307
rhand -3.83332 9.25719
rfingers 7.12502
rthumb 21.914 -19.5217
lclavicle -5.56597e-015 5.56597e-015
lhumerus 76.1829 -6.63721 69.6638
lradius 65.7528
lwrist -29.5083
lhand -43.5862 14.2397
lfingers 7.12502
lthumb -16.4228 43.5645
rfemur -43.4778 -7.88925 16.3322
rtibia 40.4981
rfoot -8.83424 -8.67535
rtoes -12.2437
lfemur -40.2143 5.46548 -24.7728
ltibia 35.1756
lfoot -8.03507 -4.09706
ltoes -18.4188
2446
root 0.307488 17.5436 -1.02669 18.1019 3.43694 4.24417
lowerback 10.1419 -0.654294 2.72186
upperback 5.38821 -0.600681 1.58967
thorax -0.0943561 -0.263011 0.17356
lowerneck 11.4595 11.6116 -4.23501
upperneck -4.06232 13.9724 -15.0449
head -2.27863 7.69349 -4.57608
rclavicle -1.03368e-014 -9.54166e-015
rhumerus -6.94755 -19.3456 -80.7298
rradius 31.3922
rwrist 31.9142
rhand -3.57649 9.28118
rfingers 7.12502
rthumb 22.1606 -19.4687
lclavicle -1.03368e-014 -9.54166e-015
lhumerus 76.1529 -6.64328 69.8383
lradius 65.2811
lwrist -29.5039
lhand -43.8268 14.765
lfingers 7.12502
lthumb -16.6545 44.0705
rfemur -43.4349 -7.90129 16.3671
rtibia 40.4765
rfoot -8.87661 -8.66736
rtoes -12.0788
lfemur -40.185 5.45137 -24.7274
ltibia 35.1574
lfoot -8.03436 -4.1041
ltoes -18.58
2447
root 0.30732 17.5447 -1.02552 18.1122 3.48614 4.24903
lowerback 10.1471 -0.657699 2.66002
upperback 5.40091 -0.610459 1.59152
thorax -0.0837073 -0.268877 0.211119
lowerneck 11.5036 11.5479 -4.25451
upperneck -4.04317 13.8839 -14.9691
head -2.29188 7.64646 -4.55057
rclavicle -7.95139e-016 -1.66979e-014
rhumerus -6.91576 -19.1074 -80.7596
rradius 31.5414
rwrist 31.6461
rhand -3.43165 9.23692
rfingers 7.12502
rthumb 22.2996 -19.4963
lclavicle -7.95139e-016 -1.66979e-014
lhumerus 76.1199 -6.59913 70.0364
lradius 64.7282
lwrist -29.5033
lhand -43.904 15.0169
lfingers 7.12502
lthumb -16.7288 44.3161
rfemur -43.4173 -7.90099 16.3544
rtibia 40.4462
rfoot -8.89541 -8.67628
rtoes -11.8778
lfemur -40.1938 5.42832 -24.7238
ltibia 35.1535
lfoot -8.02766 -4.14903
ltoes -18.4978
2448
root 0.306487 17.5453 -1.02385 18.1585 3.55825 4.1824
lowerback 10.1431 -0.663937 2.66049
upperback 5.39236 -0.618057 1.6232
thorax -0.0901976 -0.27314 0.244372
lowerneck 11.5361 11.538 -4.27605
upperneck -3.98874 13.8709 -14.9366
head -2.285 7.63651 -4.53754
rclavicle 1.51076e-014 7.95139e-015
rhumerus -6.86122 -18.8481 -80.7945
rradius 31.6497
rwrist 31.4759
rhand -3.66142 9.48076
rfingers 7.12502
rthumb 22.0791 -19.2787
lclavicle 1.51076e-014 7.95139e-015
lhumerus 76.0748 -6.54153 70.1963
lradius 64.2184
lwrist -29.497
lhand -43.7269 15.2791
lfingers 7.12502
lthumb -16.5583 44.5926
rfemur -43.425 -7.86242 16.416
rtibia 40.4034
rfoot -8.96719 -8.6972
rtoes -10.9851
lfemur -40.2471 5.4063 -24.6326
ltibia 35.1597
lfoot -8.01133 -4.21085
ltoes -17.8763
2449
root 0.30574 17.5451 -1.02203 18.1986 3.63515 4.11664
lowerback 10.132 -0.664681 2.69182
upperback 5.40209 -0.616875 1.62756
thorax -0.0741803 -0.271739 0.231029
lowerneck 11.6577 11.5176 -4.20821
upperneck -4.13963 13.8197 -15.0081
head -2.3441 7.62663 -4.58184
rclavicle 1.19271e-014 4.77083e-015
rhumerus -6.8002 -18.7926 -80.8826
rradius 31.7051
rwrist 31.5195
rhand -4.12901 10.165
rfingers 7.12502
rthumb 21.6301 -18.6469
lclavicle 1.19271e-014 4.77083e-015
lhumerus 76.0422 -6.50389 70.3667
lradius 63.7618
lwrist -29.4095
lhand -43.3695 15.1007
lfingers 7.12502
lthumb -16.2142 44.4426
rfemur -43.4327 -7.82963 16.4816
rtibia 40.3679
rfoot -9.00642 -8.75
rtoes -10.7003
lfemur -40.2872 5.39251 -24.5528
ltibia 35.1526
lfoot -8.01717 -4.23409
ltoes -18.0428
2450
root 0.305148 17.547 -1.02018 18.2338 3.73021 4.07985
lowerback 10.1053 -0.671731 2.69497
upperback 5.42839 -0.627213 1.65354
thorax -0.0321104 -0.276547 0.256754
lowerneck 11.6895 11.4752 -4.27643
upperneck -4.28255 13.7306 -15.0324
head -2.40148 7.59481 -4.58588
rclavicle -1.27222e-014 1.59028e-014
rhumerus -6.71305 -18.7255 -80.9171
rradius 31.7465
rwrist 31.5748
rhand -4.34132 10.4301
rfingers 7.12502
rthumb 21.4262 -18.4051
lclavicle -1.27222e-014 1.59028e-014
lhumerus 76.0246 -6.44621 70.603
lradius 63.2672
lwrist -29.4531
lhand -43.1137 15.1093
lfingers 7.12502
lthumb -15.9678 44.4711
rfemur -43.4228 -7.89658 16.5535
rtibia 40.3266
rfoot -9.01477 -8.75822
rtoes -10.5539
lfemur -40.3158 5.36389 -24.5024
ltibia 35.1345
lfoot -7.99614 -4.30251
ltoes -17.8843
2451
root 0.304156 17.5484 -1.01947 18.316 3.75823 4.15528
lowerback 10.0729 -0.641158 2.62605
upperback 5.41002 -0.594178 1.60146
thorax -0.0332148 -0.260871 0.238015
lowerneck 11.6254 11.4521 -4.32072
upperneck -4.18277 13.7152 -14.9517
head -2.3702 7.57577 -4.54626
rclavicle 3.18055e-015 -2.38542e-015
rhumerus -6.72119 -18.7097 -80.9725
rradius 31.8194
rwrist 31.6691
rhand -4.59599 10.2572
rfingers 7.12502
rthumb 21.1815 -18.6056
lclavicle 3.18055e-015 -2.38542e-015
lhumerus 75.9876 -6.48964 70.7928
lradius 62.839
lwrist -29.5644
lhand -42.8404 15.5055
lfingers 7.12502
lthumb -15.7046 44.8882
rfemur -43.4859 -7.98143 16.5073
rtibia 40.2967
rfoot -8.96966 -8.77588
rtoes -10.6571
lfemur -40.3876 5.31951 -24.5884
ltibia 35.1
lfoot -7.95213 -4.33202
ltoes -17.6286
2452
root 0.304525 17.5505 -1.0187 18.3562 3.7851 4.17661
lowerback 10.0607 -0.628147 2.60161
upperback 5.42068 -0.580276 1.56134
thorax -0.0155551 -0.253645 0.208711
lowerneck 11.5498 11.4705 -4.35283
upperneck -4.1218 13.7522 -14.9058
head -2.34245 7.58618 -4.5214
rclavicle 1.59028e-015 -3.97569e-015
rhumerus -6.6725 -18.6426 -81.0792
rradius 31.8301
rwrist 31.8506
rhand -5.06235 10.3002
rfingers 7.12502
rthumb 20.7335 -18.6122
lclavicle 1.59028e-015 -3.97569e-015
lhumerus 75.9651 -6.47306 70.8963
lradius 62.4523
lwrist -29.5233
lhand -42.5836 15.9648
lfingers 7.12502
lthumb -15.4573 45.3668
rfemur -43.5071 -7.98868 16.4857
rtibia 40.2664
rfoot -8.96349 -8.81256
rtoes -10.8427
lfemur -40.4311 5.29012 -24.6134
ltibia 35.0784
lfoot -7.93906 -4.31606
ltoes -17.864
2453
root 0.305631 17.5515 -1.01668 18.3638 3.84288 4.14177
lowerback 10.071 -0.637078 2.63362
upperback 5.43816 -0.589304 1.55499
thorax -0.00341566 -0.257135 0.18513
lowerneck 11.5316 11.5034 -4.41544
upperneck -4.14199 13.7867 -14.8878
head -2.34897 7.60413 -4.50853
rclavicle 1.03368e-014 4.77083e-015
rhumerus -6.5894 -18.584 -81.1784
rradius 31.8738
rwrist 31.885
rhand -5.12974 10.3038
rfingers 7.12502
rthumb 20.6688 -18.6157
lclavicle 1.03368e-014 4.77083e-015
lhumerus 75.8937 -6.41103 70.9545
lradius 62.1392
lwrist -29.3013
lhand -42.3466 16.2955
lfingers 7.12502
lthumb -15.229 45.715
rfemur -43.4818 -7.9587 16.5037
rtibia 40.2479
rfoot -9.02812 -8.83149
rtoes -10.4612
lfemur -40.4443 5.27921 -24.5793
ltibia 35.0804
lfoot -7.9666 -4.32368
ltoes -18.388
2454
root 0.306325 17.5499 -1.01493 18.3619 3.90641 4.07382
lowerback 10.1238 -0.634213 2.69484
upperback 5.44471 -0.57817 1.55998
thorax -0.0255063 -0.250536 0.155347
lowerneck 11.5432 11.5267 -4.39598
upperneck -4.07322 13.8276 -14.8919
head -2.32576 7.62039 -4.5114
rclavicle -5.56597e-015 5.56597e-015
rhumerus -6.57777 -18.3791 -81.2074
rradius 32.0438
rwrist 31.6309
rhand -4.96062 10.1089
rfingers 7.12502
rthumb 20.8312 -18.7928
lclavicle -5.56597e-015 5.56597e-015
lhumerus 75.7996 -6.37068 71.055
lradius 61.9219
lwrist -29.2004
lhand -41.9482 16.4184
lfingers 7.12502
lthumb -14.8453 45.8666
rfemur -43.4548 -7.92188 16.5642
rtibia 40.2373
rfoot -8.96908 -8.92834
rtoes -11.0099
lfemur -40.4631 5.26721 -24.4969
ltibia 35.1108
lfoot -7.98836 -4.34505
ltoes -18.5363
